<svg width="28" height="28" viewBox="0 0 28 28" fill="current" xmlns="http://www.w3.org/2000/svg">
<g clip-path="url(#clip0_957_672)">
<path d="M4.99976 10H22.9998L22.1572 25.1664C22.0689 26.7562 20.754 28 19.1618 28H8.83772C7.24551 28 5.93065 26.7562 5.84233 25.1664L4.99976 10Z" fill="current"/>
<path d="M22.4999 3H18.9839C18.9769 2.20653 18.6586 1.44756 18.0975 0.886468C17.5364 0.325379 16.7774 0.00704651 15.9839 0H11.9999C11.2043 0 10.4412 0.316071 9.87862 0.87868C9.31601 1.44129 8.99994 2.20435 8.99994 3H5.49994C2.27094 3 2.27794 8 5.49994 8H22.4999C25.7289 8 25.7219 3 22.4999 3ZM11.9999 2H15.9859C16.25 2.00362 16.5023 2.11014 16.689 2.2969C16.8758 2.48366 16.9823 2.73591 16.9859 3H10.9999C10.9999 2.73478 11.1053 2.48043 11.2928 2.29289C11.4804 2.10536 11.7347 2 11.9999 2Z" fill="current"/>
</g>
<defs>
<clipPath id="clip0_957_672">
<rect width="28" height="28" fill="white"/>
</clipPath>
</defs>
</svg>
