<svg width="28" height="28" viewBox="0 0 28 28" fill="current" xmlns="http://www.w3.org/2000/svg">
<g clip-path="url(#clip0_872_1064)">
<path d="M22.5 9.99999H5.5C5.379 9.99999 5.265 9.97399 5.146 9.96399L5.9 25.158C5.9405 25.9259 6.27436 26.649 6.83264 27.1779C7.39092 27.7068 8.13098 28.0011 8.9 28H19.1C19.8695 28.001 20.61 27.7063 21.1683 27.1768C21.7267 26.6473 22.0602 25.9235 22.1 25.155L22.855 9.96399C22.735 9.97399 22.621 9.99999 22.5 9.99999ZM11 25C11 25.2652 10.8946 25.5196 10.7071 25.7071C10.5196 25.8946 10.2652 26 10 26C9.73478 26 9.48043 25.8946 9.29289 25.7071C9.10535 25.5196 9 25.2652 9 25V13C9 12.7348 9.10535 12.4804 9.29289 12.2929C9.48043 12.1053 9.73478 12 10 12C10.2652 12 10.5196 12.1053 10.7071 12.2929C10.8946 12.4804 11 12.7348 11 13V25ZM15 25C15 25.2652 14.8946 25.5196 14.7071 25.7071C14.5196 25.8946 14.2652 26 14 26C13.7348 26 13.4804 25.8946 13.2929 25.7071C13.1054 25.5196 13 25.2652 13 25V13C13 12.7348 13.1054 12.4804 13.2929 12.2929C13.4804 12.1053 13.7348 12 14 12C14.2652 12 14.5196 12.1053 14.7071 12.2929C14.8946 12.4804 15 12.7348 15 13V25ZM19 25C19 25.2652 18.8946 25.5196 18.7071 25.7071C18.5196 25.8946 18.2652 26 18 26C17.7348 26 17.4804 25.8946 17.2929 25.7071C17.1054 25.5196 17 25.2652 17 25V13C17 12.7348 17.1054 12.4804 17.2929 12.2929C17.4804 12.1053 17.7348 12 18 12C18.2652 12 18.5196 12.1053 18.7071 12.2929C18.8946 12.4804 19 12.7348 19 13V25Z" fill="current"/>
<path d="M22.5 3H18.984C18.9769 2.20653 18.6586 1.44756 18.0975 0.886468C17.5364 0.325379 16.7775 0.00704651 15.984 0H12C11.2043 0 10.4413 0.316071 9.87868 0.87868C9.31607 1.44129 9 2.20435 9 3H5.5C2.271 3 2.278 8 5.5 8H22.5C25.729 8 25.722 3 22.5 3ZM12 2H15.986C16.2501 2.00362 16.5023 2.11014 16.6891 2.2969C16.8759 2.48366 16.9824 2.73591 16.986 3H11C11 2.73478 11.1054 2.48043 11.2929 2.29289C11.4804 2.10536 11.7348 2 12 2Z" fill="current"/>
</g>
<defs>
<clipPath id="clip0_872_1064">
<rect width="28" height="28" fill="current"/>
</clipPath>
</defs>
</svg>
