<svg width="60" height="60" viewBox="0 0 60 60" fill="none" xmlns="http://www.w3.org/2000/svg">
<path d="M57.2727 34.7687C57.8152 34.7687 58.3355 34.5531 58.7191 34.1696C59.1027 33.786 59.3182 33.2657 59.3182 32.7232C59.3182 32.1807 59.1027 31.6604 58.7191 31.2768C58.3355 30.8932 57.8152 30.6777 57.2727 30.6777L51.8182 30.6791V5.45456L39.9073 14.9831C38.6613 13.6119 37.126 12.5351 35.4124 11.8304C33.6989 11.1258 31.8501 10.8111 30 10.9091C28.1497 10.811 26.3009 11.1257 24.5872 11.8303C22.8736 12.5349 21.3382 13.6119 20.0921 14.9831L8.18181 5.45456V30.6791L2.72726 30.6777C2.18477 30.6777 1.6645 30.8932 1.28091 31.2768C0.897309 31.6604 0.681806 32.1807 0.681806 32.7232C0.681806 33.2657 0.897309 33.786 1.28091 34.1696C1.6645 34.5531 2.18477 34.7687 2.72726 34.7687L8.2849 34.77C8.47415 36.7697 8.94072 38.7334 9.67117 40.6045L1.81199 44.5339C1.32671 44.7766 0.957703 45.202 0.786133 45.7167C0.614562 46.2315 0.654487 46.7932 0.897124 47.2785C1.13976 47.7638 1.56523 48.1328 2.07995 48.3044C2.59466 48.4759 3.15644 48.436 3.64171 48.1934L11.5044 44.262C13.4585 47.4074 16.1825 50.0025 19.4188 51.8019C22.6551 53.6014 26.2969 54.5457 29.9998 54.5457C33.7028 54.5457 37.3446 53.6014 40.5809 51.8019C43.8172 50.0025 46.5412 47.4074 48.4953 44.262L56.3588 48.1939C56.5997 48.3194 56.8631 48.3957 57.1337 48.4183C57.4044 48.441 57.6768 48.4095 57.9352 48.3257C58.1935 48.2419 58.4326 48.1075 58.6384 47.9303C58.8443 47.7531 59.0128 47.5368 59.1341 47.2938C59.2554 47.0508 59.3271 46.7861 59.3451 46.5151C59.363 46.2441 59.3268 45.9722 59.2386 45.7154C59.1503 45.4585 59.0118 45.2218 58.8311 45.0191C58.6504 44.8163 58.4311 44.6516 58.1861 44.5345L50.3285 40.6056C51.0589 38.7342 51.5255 36.7704 51.7148 34.7706L57.2727 34.7687ZM35.2672 31.0388L31.1217 35.0089C30.818 35.2954 30.4164 35.4549 29.9989 35.4549C29.5814 35.4549 29.1798 35.2954 28.8761 35.0089L24.7306 31.0388C24.6427 30.9531 24.5828 30.8426 24.5591 30.7221C24.5354 30.6015 24.5489 30.4766 24.5978 30.364C24.6467 30.2513 24.7287 30.1561 24.8329 30.0911C24.9372 30.0261 25.0587 29.9943 25.1814 30H34.818C34.9405 29.9947 35.0618 30.0268 35.1657 30.092C35.2697 30.1571 35.3514 30.2523 35.4 30.3649C35.4487 30.4775 35.462 30.6022 35.4382 30.7226C35.4145 30.8429 35.355 30.9532 35.2672 31.0388Z" fill="black"/>
</svg>
