<svg width="28" height="28" viewBox="0 0 28 28" fill="current" xmlns="http://www.w3.org/2000/svg">
<path d="M3.38381 12.8332C3.07478 12.849 2.78459 12.9866 2.57684 13.216C2.36909 13.4453 2.26073 13.7476 2.2755 14.0567C2.29028 14.3658 2.42699 14.6563 2.65566 14.8648C2.88434 15.0733 3.18633 15.1826 3.49546 15.1688H24.5023C24.656 15.1692 24.8082 15.1395 24.9503 15.081C25.0924 15.0226 25.2216 14.9365 25.3304 14.828C25.4393 14.7196 25.5256 14.5906 25.5845 14.4487C25.6434 14.3068 25.6738 14.1547 25.6738 14.001C25.6738 13.8473 25.6434 13.6952 25.5845 13.5533C25.5256 13.4114 25.4393 13.2825 25.3304 13.174C25.2216 13.0655 25.0924 12.9796 24.9503 12.9211C24.8082 12.8626 24.656 12.8328 24.5023 12.8332H3.49547C3.45827 12.8315 3.42101 12.8315 3.38381 12.8332Z" fill="current"/>
</svg>
