<svg width="38" height="20" viewBox="0 0 38 20" fill="current" xmlns="http://www.w3.org/2000/svg">
<g clip-path="url(#clip0_1089_605)">
<path d="M1.4027 19.962C1.02584 19.962 0.708972 19.8335 0.45205 19.5766C0.195129 19.3197 0.0666504 19.0028 0.0666504 18.626V1.23174C0.0666504 0.83776 0.195129 0.520889 0.45205 0.281091C0.708972 0.0241695 1.02584 -0.104309 1.4027 -0.104309C1.91654 -0.104309 2.31052 0.135489 2.58457 0.615085L10.6265 16.7247H9.80436L17.6407 0.615085C17.9148 0.135489 18.3088 -0.104309 18.8226 -0.104309C19.1995 -0.104309 19.5163 0.0241695 19.7733 0.281091C20.0302 0.520889 20.1587 0.83776 20.1587 1.23174V18.626C20.1587 19.0028 20.0216 19.3197 19.7476 19.5766C19.4907 19.8335 19.1823 19.962 18.8226 19.962C18.4458 19.962 18.1289 19.8335 17.872 19.5766C17.6151 19.3197 17.4866 19.0028 17.4866 18.626V4.93152L18.0005 4.80308L11.2688 18.5232C10.9776 18.9685 10.5923 19.1912 10.1126 19.1912C9.5474 19.1912 9.13633 18.9257 8.87938 18.3948L2.22487 5.06L2.73875 4.93152V18.626C2.73875 19.0028 2.61027 19.3197 2.35335 19.5766C2.09639 19.8335 1.77952 19.962 1.4027 19.962Z" fill="current"/>
<path d="M18.8191 9.19946H29.0641" stroke="current" stroke-width="1.95488" stroke-linecap="round"/>
<path d="M18.8191 14.1591H29.0641" stroke="current" stroke-width="1.95488" stroke-linecap="round"/>
<path d="M31.3822 19.9513C30.035 19.9513 28.7708 19.7018 27.5898 19.2029C26.4254 18.6873 25.4024 17.9804 24.5208 17.0823C23.6558 16.1675 22.9738 15.1031 22.4748 13.889C21.9924 12.6748 21.7512 11.3609 21.7512 9.94721C21.7512 8.55016 21.9924 7.25284 22.4748 6.05537C22.9738 4.84125 23.6558 3.78511 24.5208 2.88699C25.4024 1.97225 26.4254 1.25706 27.5898 0.74148C28.7542 0.2259 30.0184 -0.0318909 31.3822 -0.0318909C32.663 -0.0318909 33.761 0.134419 34.6758 0.467073C35.6073 0.799692 36.5388 1.34854 37.4706 2.11362C37.6034 2.21339 37.7034 2.32153 37.77 2.43795C37.8529 2.53772 37.9028 2.64585 37.9195 2.76228C37.9528 2.86205 37.9694 2.9868 37.9694 3.13649C37.9694 3.45249 37.8529 3.71857 37.6201 3.93481C37.404 4.13438 37.1379 4.25081 36.8219 4.28408C36.5058 4.30069 36.1978 4.1926 35.8984 3.95975C35.2829 3.42755 34.6425 3.02007 33.9772 2.7373C33.3284 2.45457 32.4636 2.3132 31.3822 2.3132C30.4009 2.3132 29.4778 2.51278 28.6128 2.91193C27.7478 3.31113 26.9826 3.85998 26.3173 4.55848C25.6685 5.25703 25.1612 6.07199 24.7953 7.00338C24.4293 7.91812 24.2463 8.89943 24.2463 9.94721C24.2463 11.0117 24.4293 12.0096 24.7953 12.941C25.1612 13.8557 25.6685 14.6624 26.3173 15.3609C26.9826 16.0594 27.7478 16.6083 28.6128 17.0075C29.4778 17.39 30.4009 17.5812 31.3822 17.5812C32.2308 17.5812 33.029 17.4399 33.7777 17.1571C34.543 16.8578 35.2746 16.4503 35.9733 15.9347C36.2727 15.7185 36.5637 15.627 36.8465 15.6603C37.1462 15.6769 37.3957 15.7933 37.5951 16.0095C37.795 16.2091 37.8945 16.4918 37.8945 16.8578C37.8945 17.0241 37.8612 17.1904 37.795 17.3567C37.7283 17.5064 37.6284 17.6478 37.4952 17.7808C36.5971 18.496 35.6323 19.0365 34.6009 19.4024C33.5865 19.7683 32.5135 19.9513 31.3822 19.9513Z" fill="current"/>
</g>
<!-- <defs>
<clipPath id="clip0_1089_605">
<rect width="38" height="19.962" fill="white"/>
</clipPath>
</defs> -->
</svg>
