<svg width="28" height="28" viewBox="0 0 28 28" fill="current" xmlns="http://www.w3.org/2000/svg">
<path d="M24.8571 12.8571H15.1429V3.14286C15.1429 2.51202 14.632 2 14 2C13.368 2 12.8571 2.51202 12.8571 3.14286V12.8571H3.14286C2.51084 12.8571 2 13.3692 2 14C2 14.6308 2.51084 15.1429 3.14286 15.1429H12.8571V24.8571C12.8571 25.488 13.368 26 14 26C14.632 26 15.1429 25.488 15.1429 24.8571V15.1429H24.8571C25.4892 15.1429 26 14.6308 26 14C26 13.3692 25.4892 12.8571 24.8571 12.8571Z" fill="current" stroke="current"/>
</svg>
